<?xml version="1.0" encoding="utf-8"?>
<!-- Generator: Adobe Illustrator 19.2.1, SVG Export Plug-In . SVG Version: 6.00 Build 0)  -->
<svg version="1.1" id="Layer_1" xmlns="http://www.w3.org/2000/svg" xmlns:xlink="http://www.w3.org/1999/xlink" x="0px" y="0px"
	 viewBox="0 0 159 42" style="enable-background:new 0 0 159 42;" xml:space="preserve">
<style type="text/css">
	.st0{fill:#93B6AA;}
	.st1{fill:#E89A5F;}
	.st2{fill:#62A1C3;}
	.st3{opacity:0.7;fill:#38629A;}
	.st4{opacity:0.7;}
	.st5{fill:#D24613;}
	.st6{fill:#E82200;}
	.st7{fill:#D71E00;}
	.st8{fill:#0487BD;}
	.st9{fill:#6291B2;}
	.st10{fill:#6D6D6D;}
	.st11{fill:none;stroke:#6D6D6D;stroke-width:0.4105;stroke-miterlimit:10;}
	.st12{fill:#38629A;}
	.st13{fill:#FFFFFF;}
	.st14{fill:#2B4D89;}
	.st15{fill:#C41A00;}
</style>
<g id="XMLID_12374_">
	<g id="XMLID_12375_">
		<path id="XMLID_12633_" class="st14" d="M95.9,20.7H89l-2.5,11.6h-6.7L86.7,0h14.1c3.2,0,5.7,0.8,7.2,2.5c1.6,1.7,2,4.2,1.3,7.7
			c-0.8,3.8-2.4,6.5-4.6,8.1C102.4,19.9,99.4,20.7,95.9,20.7z M98.5,5.6h-6.3l-2,9.5h6.3c1.6,0,2.9-0.4,4-1.2c1.1-0.8,1.8-2,2.1-3.7
			c0.4-1.7,0.2-2.9-0.6-3.6C101.3,6,100.1,5.6,98.5,5.6z"/>
		<path id="XMLID_12609_" class="st14" d="M120.2,17.8c1.2-0.1,2.1-0.3,2.6-0.5c1-0.4,1.5-1,1.7-1.8c0.2-1,0-1.7-0.6-2
			s-1.6-0.6-2.9-0.6c-1.5,0-2.6,0.4-3.4,1.1c-0.5,0.5-1,1.3-1.3,2.2h-6c0.6-2.1,1.5-3.8,2.8-5.1c2.1-2.1,5.2-3.2,9.2-3.2
			c2.6,0,4.8,0.5,6.6,1.6c1.8,1,2.4,3,1.8,5.9l-2.3,11c-0.2,0.8-0.3,1.7-0.5,2.8c-0.1,0.8-0.1,1.4,0,1.7c0.1,0.3,0.4,0.5,0.8,0.7
			l-0.2,0.9h-6.8c-0.1-0.5-0.1-0.9-0.1-1.4c0-0.4,0.1-0.9,0.1-1.4c-1.1,0.9-2.2,1.7-3.5,2.4c-1.5,0.8-3.1,1.2-4.8,1.2
			c-2.2,0-3.8-0.6-5-1.9c-1.1-1.2-1.5-3-1-5.2c0.6-2.9,2.2-5.1,4.8-6.4c1.4-0.7,3.3-1.2,5.8-1.5L120.2,17.8z M123.4,20.7
			c-0.4,0.2-0.9,0.4-1.3,0.6c-0.4,0.2-1,0.3-1.8,0.4l-1.4,0.3c-1.4,0.2-2.4,0.5-3,0.9c-1.1,0.6-1.7,1.5-2,2.7
			c-0.2,1.1-0.1,1.8,0.4,2.3c0.5,0.5,1.2,0.7,2,0.7c1.3,0,2.7-0.4,4-1.2c1.3-0.8,2.2-2.2,2.7-4.3L123.4,20.7z"/>
		<g id="XMLID_12390_">
			<path id="XMLID_12604_" class="st15" d="M-0.1,41.9c0.3,0,16.9,0,49.1,0.1l1.1-5L1,36.9L-0.1,41.9z"/>
			<path id="XMLID_12603_" class="st15" d="M152.4,8.5l-8.7,17.6l-1.5-17.6h-6.9l3.5,24.9c0,0.2-0.2,0.7-0.7,1.4
				c-0.5,0.8-0.9,1.3-1.4,1.6c-0.4,0.3-0.9,0.4-1.5,0.5c-0.6,0.1-1.2,0.1-1.8,0.1l-54.7,0l-1.1,5c34.1,0,55.2,0,55.4,0
				c0.3,0,0.8,0,1.3,0c2.8,0,4.7-0.5,5.9-1.6c1.1-1.1,3-3.9,5.5-8.4l13.2-23.5H152.4z"/>
		</g>
		<g id="XMLID_12378_">
			<path id="XMLID_12384_" class="st14" d="M18.1,20.7h-6.9L8.8,32.3H2.1L8.9,0H23c3.2,0,5.6,0.8,7.2,2.5c1.6,1.7,2,4.2,1.3,7.7
				c-0.8,3.8-2.4,6.5-4.6,8.1C24.6,19.9,21.7,20.7,18.1,20.7z M20.7,5.6h-6.3l-2,9.5h6.3c1.6,0,2.9-0.4,4-1.2c1.1-0.8,1.8-2,2.1-3.7
				c0.4-1.7,0.2-2.9-0.6-3.6C23.5,6,22.3,5.6,20.7,5.6z"/>
			<path id="XMLID_12381_" class="st14" d="M42.4,17.8c1.2-0.1,2.1-0.3,2.6-0.5c1-0.4,1.5-1,1.7-1.8c0.2-1,0-1.7-0.6-2
				c-0.6-0.4-1.6-0.6-2.9-0.6c-1.5,0-2.6,0.4-3.4,1.1c-0.5,0.5-1,1.3-1.3,2.2h-6c0.6-2.1,1.5-3.8,2.8-5.2c2.1-2.1,5.2-3.2,9.2-3.2
				c2.6,0,4.8,0.5,6.6,1.6c1.8,1,2.4,3,1.8,5.9l-2.3,11c-0.2,0.8-0.3,1.7-0.5,2.8c-0.1,0.8-0.1,1.4,0,1.7c0.1,0.3,0.4,0.5,0.8,0.7
				l-0.2,0.9h-6.8c-0.1-0.5-0.1-0.9-0.1-1.4c0-0.4,0.1-0.9,0.1-1.4c-1.1,0.9-2.2,1.7-3.5,2.4C39,32.7,37.4,33,35.7,33
				c-2.2,0-3.8-0.6-5-1.9c-1.1-1.2-1.5-3-1-5.2c0.6-2.9,2.2-5.1,4.8-6.4c1.4-0.7,3.3-1.2,5.8-1.5L42.4,17.8z M45.6,20.7
				c-0.4,0.2-0.9,0.5-1.3,0.6c-0.4,0.2-1,0.3-1.8,0.4L41.1,22c-1.4,0.2-2.4,0.5-3,0.9c-1.1,0.6-1.7,1.5-2,2.7
				c-0.2,1.1-0.1,1.8,0.4,2.3c0.5,0.5,1.2,0.7,2,0.7c1.3,0,2.7-0.4,4-1.2c1.3-0.8,2.2-2.2,2.7-4.3L45.6,20.7z"/>
			<path id="XMLID_12379_" class="st14" d="M54.9,36.9l0.8,0c0.6,0,1.2,0,1.8-0.1c0.6-0.1,1.1-0.2,1.5-0.5c0.4-0.3,0.9-0.8,1.4-1.6
				c0.5-0.8,0.7-1.3,0.7-1.4L57.6,8.4h6.9L66,26l8.7-17.6h6.6L68.1,31.9c-2.5,4.5-4.4,7.3-5.5,8.4c-1.1,1.1-3.1,1.6-5.9,1.6
				c-0.6,0-1,0-1.3,0c-0.3,0-1.3,0-1.9-0.1L54.9,36.9z"/>
		</g>
	</g>
</g>
</svg>
